<svg width="1200" height="720" viewBox="0 0 1200 720" fill="none" xmlns="http://www.w3.org/2000/svg">
  <rect width="1200" height="720" fill="#0A0A0A"/>
  <rect x="34" y="30" width="1132" height="660" rx="24" fill="#111113"/>
  <rect x="34.5" y="30.5" width="1131" height="659" rx="23.5" stroke="white" stroke-opacity="0.1"/>

  <rect x="34" y="30" width="1132" height="68" rx="24" fill="#0F0F11"/>
  <path d="M34 74H1166V98H34V74Z" fill="#0F0F11"/>
  <rect x="68" y="53" width="28" height="28" rx="7" fill="#4F46E5"/>
  <text x="110" y="73" fill="#FAFAFA" font-family="Inter, Arial, sans-serif" font-size="22" font-weight="650">Duely</text>
  <text x="1008" y="72" fill="#A1A1AA" font-family="Inter, Arial, sans-serif" font-size="13">Feedback</text>
  <text x="1092" y="72" fill="#A1A1AA" font-family="Inter, Arial, sans-serif" font-size="13">Billing</text>

  <rect x="68" y="138" width="96" height="28" rx="14" fill="#065F46" fill-opacity="0.22"/>
  <text x="116" y="157" text-anchor="middle" fill="#A7F3D0" font-family="Inter, Arial, sans-serif" font-size="12" font-weight="600">Active plan</text>
  <text x="68" y="214" fill="#FAFAFA" font-family="Inter, Arial, sans-serif" font-size="54" font-weight="700" letter-spacing="-2.2">Reminders</text>
  <text x="70" y="248" fill="#71717A" font-family="Inter, Arial, sans-serif" font-size="17">Create a reminder. Duely follows up until you get paid.</text>

  <rect x="842" y="142" width="256" height="88" rx="18" fill="#18181B"/>
  <rect x="842.5" y="142.5" width="255" height="87" rx="17.5" stroke="white" stroke-opacity="0.08"/>
  <text x="896" y="180" text-anchor="middle" fill="#FAFAFA" font-family="Inter, Arial, sans-serif" font-size="30" font-weight="650">3</text>
  <text x="896" y="204" text-anchor="middle" fill="#52525B" font-family="Inter, Arial, sans-serif" font-size="12">Active</text>
  <text x="970" y="180" text-anchor="middle" fill="#FAFAFA" font-family="Inter, Arial, sans-serif" font-size="30" font-weight="650">1</text>
  <text x="970" y="204" text-anchor="middle" fill="#52525B" font-family="Inter, Arial, sans-serif" font-size="12">Paused</text>
  <text x="1046" y="180" text-anchor="middle" fill="#FAFAFA" font-family="Inter, Arial, sans-serif" font-size="30" font-weight="650">0</text>
  <text x="1046" y="204" text-anchor="middle" fill="#52525B" font-family="Inter, Arial, sans-serif" font-size="12">Stopped</text>

  <rect x="68" y="292" width="716" height="328" rx="20" fill="#151518"/>
  <rect x="68.5" y="292.5" width="715" height="327" rx="19.5" stroke="white" stroke-opacity="0.08"/>
  <text x="104" y="337" fill="#FAFAFA" font-family="Inter, Arial, sans-serif" font-size="19" font-weight="650">Active reminders</text>
  <text x="104" y="364" fill="#71717A" font-family="Inter, Arial, sans-serif" font-size="14">These reminders are running automatically.</text>
  <rect x="646" y="318" width="102" height="32" rx="9" fill="#4F46E5"/>
  <text x="697" y="339" text-anchor="middle" fill="#FFFFFF" font-family="Inter, Arial, sans-serif" font-size="13" font-weight="650">New reminder</text>

  <rect x="104" y="398" width="644" height="84" rx="16" fill="#101012"/>
  <rect x="104.5" y="398.5" width="643" height="83" rx="15.5" stroke="white" stroke-opacity="0.08"/>
  <circle cx="136" cy="431" r="19" fill="#27272A"/>
  <text x="136" y="436" text-anchor="middle" fill="#D4D4D8" font-family="Inter, Arial, sans-serif" font-size="12" font-weight="700">ML</text>
  <text x="168" y="425" fill="#FAFAFA" font-family="Inter, Arial, sans-serif" font-size="15" font-weight="650">Morgan Lee</text>
  <text x="168" y="448" fill="#71717A" font-family="Inter, Arial, sans-serif" font-size="13">morgan@northstar.co</text>
  <rect x="309" y="415" width="56" height="24" rx="12" fill="#065F46" fill-opacity="0.24"/>
  <text x="337" y="431" text-anchor="middle" fill="#A7F3D0" font-family="Inter, Arial, sans-serif" font-size="11" font-weight="650">Active</text>
  <text x="428" y="425" fill="#52525B" font-family="Inter, Arial, sans-serif" font-size="12">Amount</text>
  <text x="428" y="449" fill="#E4E4E7" font-family="Inter, Arial, sans-serif" font-size="14" font-weight="650">$3,200.00</text>
  <text x="552" y="425" fill="#52525B" font-family="Inter, Arial, sans-serif" font-size="12">Next send</text>
  <text x="552" y="449" fill="#D4D4D8" font-family="Inter, Arial, sans-serif" font-size="14">Thu, 9:00 AM</text>
  <text x="676" y="438" fill="#A1A1AA" font-family="Inter, Arial, sans-serif" font-size="13">Mark paid</text>

  <rect x="104" y="500" width="644" height="84" rx="16" fill="#101012"/>
  <rect x="104.5" y="500.5" width="643" height="83" rx="15.5" stroke="white" stroke-opacity="0.08"/>
  <circle cx="136" cy="533" r="19" fill="#27272A"/>
  <text x="136" y="538" text-anchor="middle" fill="#D4D4D8" font-family="Inter, Arial, sans-serif" font-size="12" font-weight="700">RK</text>
  <text x="168" y="527" fill="#FAFAFA" font-family="Inter, Arial, sans-serif" font-size="15" font-weight="650">Riley Knox</text>
  <text x="168" y="550" fill="#71717A" font-family="Inter, Arial, sans-serif" font-size="13">riley@frameworks.design</text>
  <rect x="321" y="517" width="56" height="24" rx="12" fill="#065F46" fill-opacity="0.24"/>
  <text x="349" y="533" text-anchor="middle" fill="#A7F3D0" font-family="Inter, Arial, sans-serif" font-size="11" font-weight="650">Active</text>
  <text x="428" y="527" fill="#52525B" font-family="Inter, Arial, sans-serif" font-size="12">Amount</text>
  <text x="428" y="551" fill="#E4E4E7" font-family="Inter, Arial, sans-serif" font-size="14" font-weight="650">$1,450.00</text>
  <text x="552" y="527" fill="#52525B" font-family="Inter, Arial, sans-serif" font-size="12">Next send</text>
  <text x="552" y="551" fill="#D4D4D8" font-family="Inter, Arial, sans-serif" font-size="14">Mon, 9:00 AM</text>
  <text x="676" y="540" fill="#A1A1AA" font-family="Inter, Arial, sans-serif" font-size="13">Mark paid</text>

  <rect x="820" y="292" width="278" height="160" rx="20" fill="#151518"/>
  <rect x="820.5" y="292.5" width="277" height="159" rx="19.5" stroke="white" stroke-opacity="0.08"/>
  <text x="850" y="335" fill="#FAFAFA" font-family="Inter, Arial, sans-serif" font-size="18" font-weight="650">Quick create</text>
  <text x="850" y="360" fill="#71717A" font-family="Inter, Arial, sans-serif" font-size="13">Create a reminder in seconds.</text>
  <rect x="850" y="386" width="218" height="34" rx="9" fill="#0F0F11"/>
  <rect x="850.5" y="386.5" width="217" height="33" rx="8.5" stroke="white" stroke-opacity="0.08"/>
  <text x="866" y="408" fill="#52525B" font-family="Inter, Arial, sans-serif" font-size="12">Client name</text>

  <rect x="820" y="476" width="278" height="144" rx="20" fill="#151518"/>
  <rect x="820.5" y="476.5" width="277" height="143" rx="19.5" stroke="white" stroke-opacity="0.08"/>
  <text x="850" y="519" fill="#FAFAFA" font-family="Inter, Arial, sans-serif" font-size="18" font-weight="650">Activity</text>
  <circle cx="856" cy="552" r="5" fill="#4F46E5"/>
  <text x="874" y="557" fill="#D4D4D8" font-family="Inter, Arial, sans-serif" font-size="13">Next reminder queued</text>
  <text x="874" y="578" fill="#52525B" font-family="Inter, Arial, sans-serif" font-size="12">Morgan Lee - $3,200.00</text>
  <circle cx="856" cy="600" r="5" fill="#34D399"/>
  <text x="874" y="605" fill="#D4D4D8" font-family="Inter, Arial, sans-serif" font-size="13">Reminder sent</text>
</svg>
