<svg width="720" height="540" viewBox="0 0 720 540" fill="none" xmlns="http://www.w3.org/2000/svg">
  <rect width="720" height="540" fill="#0A0A0A"/>
  <rect x="38" y="34" width="644" height="472" rx="22" fill="#141416"/>
  <rect x="38.5" y="34.5" width="643" height="471" rx="21.5" stroke="white" stroke-opacity="0.1"/>
  <rect x="38" y="34" width="644" height="64" rx="22" fill="#101012"/>
  <path d="M38 76H682V98H38V76Z" fill="#101012"/>
  <circle cx="65" cy="66" r="5" fill="#3F3F46"/>
  <circle cx="83" cy="66" r="5" fill="#3F3F46"/>
  <circle cx="101" cy="66" r="5" fill="#3F3F46"/>
  <text x="130" y="71" fill="#A1A1AA" font-family="Inter, Arial, sans-serif" font-size="13" font-weight="500">Inbox / Payment reminders</text>
  <text x="608" y="71" text-anchor="end" fill="#71717A" font-family="Inter, Arial, sans-serif" font-size="12">9:04 AM</text>

  <rect x="76" y="128" width="568" height="334" rx="18" fill="#18181B"/>
  <rect x="76.5" y="128.5" width="567" height="333" rx="17.5" stroke="white" stroke-opacity="0.08"/>

  <text x="112" y="174" fill="#FAFAFA" font-family="Inter, Arial, sans-serif" font-size="19" font-weight="650">Reminder: pending balance to Avery Studio</text>
  <text x="112" y="203" fill="#A1A1AA" font-family="Inter, Arial, sans-serif" font-size="13">Avery Studio &lt;billing@averystudio.co&gt;</text>
  <text x="112" y="228" fill="#71717A" font-family="Inter, Arial, sans-serif" font-size="12">To Morgan Lee</text>
  <text x="608" y="203" text-anchor="end" fill="#71717A" font-family="Inter, Arial, sans-serif" font-size="12">Today, 9:04 AM</text>

  <line x1="112" y1="254" x2="608" y2="254" stroke="white" stroke-opacity="0.08"/>

  <text x="112" y="292" fill="#E4E4E7" font-family="Inter, Arial, sans-serif" font-size="15">Hi Morgan,</text>
  <text x="112" y="329" fill="#D4D4D8" font-family="Inter, Arial, sans-serif" font-size="15">This is a reminder that your balance to Avery Studio is</text>
  <text x="112" y="354" fill="#D4D4D8" font-family="Inter, Arial, sans-serif" font-size="15">currently outstanding.</text>

  <rect x="112" y="382" width="222" height="56" rx="12" fill="#101012"/>
  <rect x="112.5" y="382.5" width="221" height="55" rx="11.5" stroke="white" stroke-opacity="0.08"/>
  <text x="130" y="405" fill="#71717A" font-family="Inter, Arial, sans-serif" font-size="12" font-weight="600">Pending balance</text>
  <text x="130" y="428" fill="#FAFAFA" font-family="Inter, Arial, sans-serif" font-size="18" font-weight="700">$3,200.00</text>

  <text x="368" y="404" fill="#A1A1AA" font-family="Inter, Arial, sans-serif" font-size="13">If you've already paid,</text>
  <text x="368" y="426" fill="#A1A1AA" font-family="Inter, Arial, sans-serif" font-size="13">please ignore this message.</text>

  <text x="112" y="481" fill="#52525B" font-family="Inter, Arial, sans-serif" font-size="11">Sent automatically by Duely on behalf of Avery Studio.</text>
</svg>
