<svg width="138" height="153" viewBox="0 0 138 153" fill="none" xmlns="http://www.w3.org/2000/svg">
<path d="M121.004 87.0019V24.0019C121.004 21.5019 118.308 18.2561 115.004 18.0019C111.414 17.7258 108.004 22.0019 108.004 24.0019C108.004 26.0019 108.504 76.002 108.004 90.0019C107.504 104.002 91.0041 121.002 70.0041 122.002C49.0041 123.002 31.1422 104.903 31.0041 83.5019C30.866 62.1009 48.1163 43.7364 69.5041 44.5019C75.7515 44.7255 85.0041 48.5019 85.0041 48.5019V70.0019C85.0041 70.0019 76.1459 62.9863 69.5041 63.0019C58.0434 63.029 48.7263 72.5446 49.0041 84.0019C49.2786 95.3238 58.6802 103.832 70.0041 104.002C80.3131 104.156 91.0041 96.002 91.0041 88.0019C91.0041 80.0019 90.0041 32.002 90.0041 21.0019C90.0041 10.0019 101.904 -0.160944 114.504 0.00193154C126.305 0.154468 138.004 10.0019 138.004 19.0019V94.0019C138.004 122.002 105.161 152.693 70.0041 153.002C31.6208 153.339 0.416826 122.385 0.00409622 84.0019C-0.411603 45.3433 30.866 12.1747 69.5041 13.5019C75.8246 13.719 85.5041 16.0019 85.5041 16.0019L85.0041 34.5019C85.0041 34.5019 75.699 31.3649 69.5041 31.0019C40.8331 29.3221 17.7273 54.7831 18.0041 83.5019C18.2796 112.082 41.4241 135.245 70.0041 135.002C97.3538 134.769 121.004 113.002 121.004 87.0019Z" fill="#4F46E5"/>
</svg>
