<svg width="523" height="373" viewBox="0 0 523 373" fill="none" xmlns="http://www.w3.org/2000/svg">
<path d="M0 372.106C0 372.106 96.5 161.606 106 142.106C115.5 122.606 137 108.106 160 107.106C183 106.106 189 113.106 189 113.106C189 113.106 99 311.106 89.5 330.106C80 349.106 50 372.106 25.5 372.106H0Z" fill="#4F46E5"/>
<path d="M208.5 137.606C208.5 137.606 297 261.606 308 272.606C319 283.606 330.56 289.149 347.5 291.606C355.616 292.783 360.388 292.813 368.5 291.606C380.051 289.887 396.5 281.106 396.5 281.106C396.5 281.106 386.295 296.736 377.5 304.606C361.747 318.702 349.51 325.276 328.5 327.606C321.319 328.402 317.175 328.451 310 327.606C290.74 325.337 277 319.106 265 306.606C253 294.106 201.5 222.106 197.5 216.106C193.5 210.106 191.614 195.606 191.5 194.606C191.386 193.606 191.5 193.606 191.5 177.606C191.5 161.606 208.5 137.606 208.5 137.606Z" fill="#4F46E5"/>
<path d="M333 260.606C333 260.606 426.5 55.6059 435.5 39.6058C444.5 23.6058 469.176 4.59949 497.5 0.605835C507.167 -0.757259 522.5 0.605835 522.5 0.605835C522.5 0.605835 433 198.606 420.5 223.606C408 248.606 393.477 264.109 366.5 267.606C359.916 268.459 356.013 268.894 349.5 267.606C342.633 266.248 333 260.606 333 260.606Z" fill="#4F46E5"/>
<path d="M313 238.106C313 238.106 237.5 135.106 216.5 106.106C195.5 77.1059 150.5 82.6059 141 87.1059C131.5 91.6059 127 94.1059 127 94.1059C127 94.1059 133 83.6059 139 77.6059C145 71.6059 169.5 47.1059 202.5 49.1059C235.5 51.1059 254 65.6059 263.5 77.1059C273 88.6059 313.5 142.606 324 162.106C334.5 181.606 328 210.606 322.5 221.606C317 232.606 313 238.106 313 238.106Z" fill="#4F46E5"/>
</svg>
